<?xml version="1.0" encoding="utf-8"?>
<!DOCTYPE svg PUBLIC "-//W3C//DTD SVG 1.0//EN" "http://www.w3.org/TR/2001/REC-SVG-20010904/DTD/svg10.dtd">
<svg version="1.0" xmlns="http://www.w3.org/2000/svg" width="300px" height="319px" viewBox="0 0 300 319" preserveAspectRatio="xMidYMid meet">
 <g fill="none">
  <path d="M0 159.68 l0 -159.68 48.08 0 48.08 0 0 13.34 0 13.37 -1.27 -0.15 c-0.73 -0.09 -4.54 -1.03 -8.47 -2.06 -3.96 -1.06 -7.23 -1.84 -7.29 -1.78 -0.09 0.12 -3.48 14.15 -4.20 17.45 l-0.33 1.57 -1.24 0 c-1.06 0 -2.51 -0.76 -10.28 -5.44 l-9.07 -5.41 -0.57 0.97 c-5.23 8.59 -10.04 18.11 -21.99 43.61 -5.81 12.37 -6.93 14.55 -17.21 32.96 -2.69 4.84 -6.59 12.13 -8.65 16.24 l-3.75 7.44 0.82 0.54 c1.57 1 15.64 10.83 16.78 11.70 0.94 0.73 1.12 1.06 1.12 1.97 0 1.33 -0.64 2.21 -7.17 9.62 l-4.54 5.14 0.91 1.06 c0.51 0.57 2.30 2.60 4.02 4.51 6.93 7.77 7.32 8.68 4.75 10.83 -0.82 0.67 -4.29 3.11 -7.80 5.44 -3.51 2.36 -6.96 4.78 -7.68 5.41 l-1.30 1.15 3.84 7.71 c10.74 21.47 47.90 94.35 48.42 94.93 0.18 0.18 2.90 -1.48 10.71 -6.65 6.35 -4.20 7.92 -5.11 8.80 -5.11 l1.09 0 1.06 4.48 c0.60 2.45 1.60 6.71 2.24 9.50 0.70 2.93 1.33 5.08 1.51 5.08 0.21 0 3.48 -0.88 7.26 -1.97 3.81 -1.09 7.50 -1.97 8.23 -1.97 l1.27 0 0 11.95 0 11.95 -48.08 0 -48.08 0 0 -159.68z"/>
  <path d="M205.04 307.41 l0 -11.95 1.15 0 c0.60 0 4.39 0.94 8.38 2.09 3.99 1.15 7.29 2.06 7.32 2.03 0.09 -0.09 3.93 -16.39 4.17 -17.78 0.21 -1.09 0.27 -1.15 1.42 -1.15 1.21 0 1.69 0.27 15.51 8.92 l3.02 1.88 0.88 -1.39 c5.41 -8.56 17.03 -30.42 31.45 -59.15 8.50 -16.94 20.29 -41.25 20.08 -41.43 -0.06 -0.03 -1.03 -0.82 -2.21 -1.72 -1.15 -0.94 -4.35 -3.15 -7.11 -4.93 -2.75 -1.78 -5.84 -3.93 -6.86 -4.75 -2.87 -2.27 -2.81 -2.45 1.94 -7.68 2.09 -2.30 4.63 -5.29 5.59 -6.59 1.78 -2.36 1.78 -2.39 1.21 -3.02 -3.33 -3.63 -6.86 -7.77 -8.56 -9.95 -1.75 -2.27 -2.09 -2.87 -2.09 -3.84 0 -1.30 -1.24 -0.30 14 -11.25 2.27 -1.66 4.14 -3.05 4.14 -3.15 0 -0.09 -5.29 -10.80 -11.79 -23.80 -17.57 -35.29 -29.15 -57.43 -40.04 -76.48 -0.33 -0.64 -0.73 -1.15 -0.82 -1.15 -0.09 0 -3.48 2.06 -7.53 4.54 -8.65 5.38 -9.34 5.75 -10.68 5.75 -0.97 0 -1.06 -0.09 -1.27 -1.09 -0.15 -0.94 -4.17 -15.88 -4.54 -16.97 -0.09 -0.27 -0.48 -0.24 -1.57 0.06 -0.79 0.21 -3.96 1.09 -7.02 1.94 -3.05 0.85 -6.17 1.54 -6.90 1.54 l-1.30 0 0 -13.46 0 -13.46 47.48 0 47.48 0 0 159.68 0 159.68 -47.48 0 -47.48 0 0 -11.95z"/>
  <path d="M102.37 271.06 c-0.12 -8.62 -0.24 -15.70 -0.30 -15.76 -0.03 -0.06 -2.18 1.24 -4.72 2.84 -2.57 1.60 -6.50 4.08 -8.74 5.50 -9.38 5.93 -10.68 6.44 -11.46 4.54 -2.09 -5.32 -4.14 -13.09 -6.53 -24.74 -2.78 -13.61 -4.63 -21.11 -6.11 -24.65 -1.69 -4.02 -3.36 -6.11 -17.48 -21.77 -9.80 -10.92 -10.89 -12.16 -13.85 -15.97 -2 -2.54 -2.33 -3.15 -2.33 -4.14 l0 -1.15 4.29 -2.57 c5.56 -3.30 12.13 -7.62 15.30 -10.10 l2.51 -1.97 -1.30 -0.94 c-0.73 -0.51 -4.08 -2.75 -7.50 -4.99 -6.65 -4.39 -9.16 -6.17 -10.95 -7.89 -0.94 -0.85 -1.15 -1.27 -1.15 -2.18 0 -0.94 0.42 -1.63 2.69 -4.54 3.66 -4.69 9.38 -11.34 14.21 -16.51 6.56 -7.05 12.61 -14.27 14.06 -16.84 2.54 -4.48 4.51 -11.73 7.29 -26.95 2.48 -13.40 4.26 -20.38 6.47 -25.31 0.64 -1.36 0.73 -1.45 1.84 -1.45 0.97 0 2.36 0.73 8.23 4.29 8.29 5.02 15.12 9.01 15.42 9.01 0.15 0 0.24 -6.93 0.24 -15.42 l0 -15.42 1.15 0 c1.42 0 7.08 1.60 22.44 6.35 18.21 5.66 23.07 6.86 25.83 6.53 4.32 -0.57 10.37 -2.21 25.58 -6.99 11.73 -3.69 18.45 -5.59 19.66 -5.59 l1.15 0 0.12 15.12 c0.06 8.29 0.18 15.18 0.27 15.27 0.09 0.09 4.93 -2.78 10.74 -6.35 9.25 -5.69 10.71 -6.50 11.79 -6.50 1.21 0 1.30 0.06 1.78 1.30 2.09 5.08 3.21 9.44 5.26 20.17 3.93 20.35 5.20 25.07 8.23 30.27 1.81 3.15 2.84 4.35 21.17 24.80 2.57 2.90 5.72 6.50 6.96 7.98 5.44 6.59 5.56 7.02 2.63 9.68 -1.06 0.97 -2.84 2.36 -4.02 3.18 -2.27 1.51 -12.46 7.89 -14.58 9.10 -0.73 0.39 -1.30 0.79 -1.30 0.88 0.03 0.24 4.02 3.30 7.05 5.38 3.60 2.48 8.29 5.29 12.40 7.47 3.99 2.12 4.02 2.24 1.54 6.14 -2.18 3.36 -3.27 4.66 -8.29 10.04 -3.69 3.93 -8.01 8.74 -16.91 18.72 -3.27 3.69 -5.93 7.17 -7.23 9.47 -2.36 4.17 -4.42 11.70 -6.56 23.95 -2.27 12.94 -3.21 16.75 -5.53 22.50 -1.36 3.39 -1.36 3.39 -2.39 3.39 -0.57 0 -1.33 -0.18 -1.69 -0.42 -2.03 -1.27 -18.24 -11.19 -19.54 -11.95 l-1.54 -0.91 0 8.10 c0 4.45 -0.09 11.58 -0.21 15.85 l-0.18 7.77 -1.09 0 c-0.60 0 -5.11 -1.30 -10.01 -2.90 -16.78 -5.44 -27.97 -8.92 -32.12 -9.98 l-4.14 -1.06 -3.42 0.82 c-4.99 1.18 -12.82 3.51 -28.85 8.59 -7.80 2.51 -14.64 4.54 -15.15 4.54 l-0.91 0 -0.24 -15.64z m54.83 -23.10 c3.51 -1.75 7.02 -6.38 9.83 -12.97 5.35 -12.67 8.07 -28.37 7.68 -44.61 -0.27 -11.49 -2.09 -21.11 -5.78 -30.64 -2.39 -6.20 -4.99 -10.28 -10.46 -16.54 -7.05 -8.01 -8.98 -12.04 -9.74 -20.02 -0.70 -7.62 1 -18.39 3.63 -22.89 0.48 -0.85 0.73 -0.94 2.15 -1.03 2 -0.12 3.75 0.67 5.63 2.57 1.69 1.66 2.84 4.11 4.08 8.56 0.97 3.48 2.03 6.02 2.96 7.05 0.45 0.51 0.51 0.42 1.21 -1.21 1.15 -2.72 2.15 -7.14 2.36 -10.34 0.48 -7.41 -2.06 -17.51 -6.14 -24.28 -3.05 -5.14 -7.77 -9.04 -10.31 -8.56 -2.27 0.42 -4.02 1.78 -5.87 4.48 -3.18 4.66 -5.29 11.92 -6.56 22.59 -2.75 22.59 -0.82 43.03 5.29 56.16 2.54 5.47 4.72 8.65 9.80 14.30 4.96 5.47 7.05 8.92 8.07 13.28 0.70 2.87 0.76 13.43 0.15 16.97 -1.51 8.50 -4.54 14.91 -7.74 16.36 -3.42 1.54 -6.59 -0.06 -8.89 -4.51 -3.33 -6.44 -5.32 -16.21 -6.08 -29.79 -0.18 -3.39 -0.36 -4.60 -0.70 -4.96 -0.42 -0.42 -0.51 -0.06 -0.67 3.42 -0.12 2.15 -0.48 7.11 -0.85 11.01 -0.79 8.95 -1.06 21.44 -0.57 25.74 1.30 11.25 5.63 22.98 10.31 27.79 1.30 1.33 4.08 3.02 5.02 3.02 0.18 0 1.15 -0.42 2.18 -0.94z m-30.88 -10.19 c0.39 -0.24 0.82 -2.51 1.27 -6.71 1.54 -14.03 1.78 -63.33 0.51 -105.39 -0.27 -8.32 -0.54 -20.87 -0.67 -27.88 -0.24 -14 -0.12 -13.28 -2.03 -12.31 -4.99 2.54 -9.10 10.01 -12.16 22.20 -1.33 5.29 -3.11 14.09 -4.69 22.98 -0.70 3.90 -1.30 7.35 -1.39 7.65 -0.12 0.36 -0.48 0.51 -1.18 0.51 -0.70 0 -1.12 -0.18 -1.30 -0.51 -0.48 -0.94 -2.39 -8.47 -3.84 -15.06 -0.76 -3.48 -1.72 -7.71 -2.15 -9.38 -0.79 -3.15 -2.66 -9.07 -3.11 -9.77 -0.21 -0.33 -0.57 -0.33 -2.03 0.06 -0.97 0.24 -2.96 0.67 -4.42 0.97 -1.45 0.27 -2.78 0.67 -2.93 0.85 -0.15 0.18 -0.51 1.91 -0.76 3.81 -1.75 13.03 -2.18 31.54 -1.78 76.66 l0.24 28.13 0.76 1.51 c0.54 1.06 1.15 1.75 2.12 2.33 1.36 0.82 7.17 2.57 7.47 2.24 0.12 -0.09 -0.18 -4.51 -0.64 -9.77 -1.27 -15.15 -2.24 -27.40 -2.78 -36.08 -0.88 -13.37 -0.64 -36.20 0.36 -39.68 0.12 -0.39 0.48 -0.54 1.18 -0.54 0.82 0 1.18 0.21 1.78 1 3.15 4.11 5.02 13.91 6.53 33.78 0.94 12.37 1.75 17.81 3.51 23.29 1.06 3.30 1.12 3.36 2.03 1.42 1.97 -4.11 3.15 -11.31 4.29 -26.19 1.33 -17.09 2.69 -26.37 5.32 -36.29 l0.97 -3.69 1.39 0.09 1.39 0.09 0.36 1.66 c1.18 5.29 1.45 9.80 1.45 25.10 0 15.82 -0.15 19.57 -1.84 45.36 -1.51 23.50 -1.84 31.72 -1.36 32.93 0.73 1.72 3.78 3.99 6.23 4.60 1.24 0.30 1.45 0.30 1.88 0.03z m62.69 -8.71 c4.57 -1.94 6.96 -3.18 7.29 -3.81 0.48 -0.91 0.18 -8.53 -0.76 -18.69 -1 -10.55 -1.24 -17.66 -0.82 -22.20 0.79 -8.32 3.24 -15.51 5.66 -16.84 0.91 -0.48 3.75 -0.54 6.77 -0.18 l1.97 0.24 0.91 -5.84 c0.73 -4.66 0.91 -6.83 0.91 -10.83 l0 -4.99 -2.27 -0.09 c-1.24 -0.06 -2.54 -0.03 -2.87 0.06 -0.33 0.09 -1.51 1.03 -2.60 2.09 -1.36 1.33 -2.45 2.09 -3.45 2.42 -1.48 0.51 -4.99 0.70 -4.99 0.30 -0.03 -0.15 -0.15 -2.09 -0.30 -4.32 -0.48 -7.11 0.15 -13.43 2.36 -22.86 l1.12 -4.81 2.12 -0.09 c2.54 -0.12 5.56 0.36 7.38 1.18 0.79 0.33 2.48 1.72 4.14 3.33 2.60 2.57 2.81 2.72 2.99 2.06 0.09 -0.39 0.82 -4.05 1.66 -8.14 0.82 -4.08 1.69 -8.26 1.94 -9.31 0.42 -1.84 0.42 -1.88 -0.21 -2 -0.36 -0.09 -1.97 -0.36 -3.54 -0.64 -6.05 -1.09 -13.76 -4.11 -18.90 -7.41 -2.75 -1.75 -5.96 -3.45 -7.14 -3.72 l-0.79 -0.21 -0.18 10.07 c-0.12 5.50 -0.54 17.66 -0.97 26.98 -1.45 32.81 -1.72 50.78 -1.06 68.50 0.15 4.08 0.36 11.28 0.45 16.03 0.24 11.58 0.42 14.91 0.88 14.73 0.18 -0.09 1.21 -0.51 2.30 -1z"/>
 </g>
<g fill="#3d6ae1">
  <path d="M95.26 307.86 c0 -8.98 -0.09 -11.49 -0.36 -11.49 -0.21 0 -3.99 1.03 -8.38 2.27 -4.42 1.24 -8.04 2.21 -8.10 2.15 -0.12 -0.09 -3.51 -14.21 -4.35 -18.11 -0.24 -1.03 -0.45 -1.42 -0.73 -1.30 -0.24 0.09 -3.33 2.09 -6.86 4.45 -7.74 5.20 -12.70 8.20 -12.97 7.89 -0.57 -0.64 -36.93 -71.89 -49.11 -96.23 l-4.14 -8.32 1.60 -1.45 c0.91 -0.82 4.57 -3.45 8.14 -5.84 3.57 -2.39 7.11 -4.87 7.86 -5.53 l1.36 -1.18 -1.48 -1.91 c-0.85 -1.06 -2.39 -2.93 -3.48 -4.14 -6.08 -6.80 -7.02 -8.01 -6.62 -8.56 0.21 -0.27 2.63 -3.05 5.35 -6.14 2.72 -3.08 5.38 -6.20 5.87 -6.86 l0.94 -1.27 -0.76 -0.64 c-0.39 -0.36 -4.32 -3.15 -8.74 -6.20 -4.42 -3.05 -8.47 -5.90 -8.98 -6.29 l-1 -0.73 4.05 -8.07 c2.24 -4.45 6.29 -12.01 8.98 -16.84 10.28 -18.42 11.40 -20.59 17.21 -32.96 11.13 -23.77 14.58 -30.70 19.69 -39.62 2.03 -3.57 3.11 -5.17 3.51 -5.23 0.36 -0.06 4.42 2.21 9.77 5.41 5.02 3.02 9.38 5.53 9.65 5.63 0.45 0.12 0.64 -0.27 1.06 -2.24 0.27 -1.30 1.30 -5.63 2.27 -9.62 1.51 -6.26 1.84 -7.26 2.36 -7.35 0.33 -0.06 3.08 0.57 6.17 1.42 3.05 0.82 6.62 1.78 7.92 2.09 l2.33 0.60 0 -12.82 0 -12.82 55.34 0 55.34 0 0 13 c0 10.71 0.06 13 0.39 13 0.24 0 2.93 -0.70 5.99 -1.54 8.65 -2.42 8.74 -2.42 9.56 -2.33 0.73 0.09 0.88 0.42 2.66 6.90 1.03 3.75 2.12 7.83 2.42 9.07 0.30 1.24 0.57 2.30 0.60 2.36 0.18 0.21 2.75 -1.30 10.19 -5.90 4.20 -2.60 7.92 -4.78 8.26 -4.84 0.45 -0.09 0.79 0.24 1.39 1.33 0.45 0.79 2.27 4.05 4.05 7.20 3.72 6.62 11.34 20.87 19.02 35.69 6.86 13.22 29.18 58.03 29.30 58.79 0.06 0.57 -0.15 0.73 -14.36 10.98 -2.30 1.66 -4.17 3.11 -4.17 3.27 0 0.45 4.11 5.53 8.01 9.92 l3.84 4.32 -0.85 1.27 c-1.54 2.39 -3.42 4.69 -7.23 8.86 l-3.81 4.20 1.15 1 c0.64 0.54 3.75 2.72 6.90 4.81 8.80 5.84 11.82 8.41 10.46 8.92 -0.15 0.06 -2.33 4.39 -4.81 9.62 -9.65 20.32 -21.62 44.18 -33.02 65.78 -6.35 12.07 -14.97 27.34 -15.45 27.37 -0.15 0 -4.11 -2.42 -13.64 -8.35 -2.78 -1.72 -5.17 -3.15 -5.32 -3.15 -0.15 0 -0.36 0.45 -0.48 1 -0.85 4.45 -4.29 18.36 -4.57 18.36 -0.15 0 -3.84 -1.03 -8.17 -2.27 -4.32 -1.24 -7.95 -2.27 -8.07 -2.27 -0.15 0 -0.24 5.17 -0.24 11.49 l0 11.49 -55.34 0 -55.34 0 0 -11.49z m21.62 -26.31 c21.08 -6.71 31.45 -9.68 34.02 -9.68 2.42 0 12.13 2.87 37.29 11.04 4.96 1.60 9.10 2.87 9.16 2.78 0.06 -0.06 0.21 -7.35 0.33 -16.21 0.12 -9.98 0.30 -16.06 0.48 -16.06 0.42 0 2.78 1.39 12.01 7.08 10.07 6.20 11.25 6.90 11.34 6.77 0.06 -0.06 0.67 -1.45 1.33 -3.08 2.27 -5.47 3.36 -9.86 5.63 -22.74 2.15 -12.25 4.20 -19.78 6.56 -23.95 1.30 -2.30 3.96 -5.78 7.23 -9.47 8.89 -9.98 13.22 -14.79 16.91 -18.72 5.02 -5.38 6.11 -6.68 8.26 -10.04 l1.69 -2.63 -3.39 -1.78 c-6.41 -3.39 -12.97 -7.65 -17.69 -11.43 -1.39 -1.09 -2.45 -2.15 -2.39 -2.36 0.12 -0.39 1.15 -1.06 7.83 -5.17 7.59 -4.66 10.80 -6.86 12.94 -8.83 l1.94 -1.81 -1.18 -1.63 c-1.94 -2.60 -5.35 -6.68 -10.40 -12.34 -18.33 -20.44 -19.35 -21.65 -21.17 -24.80 -3.02 -5.20 -4.29 -9.92 -8.23 -30.27 -1.69 -8.92 -2.54 -12.55 -3.84 -16.33 -1.51 -4.39 -1.91 -5.20 -2.45 -5.05 -0.27 0.06 -5.23 3.05 -11.07 6.62 -11.76 7.23 -11.92 7.32 -12.19 7.08 -0.09 -0.12 -0.24 -7.20 -0.30 -15.76 -0.09 -8.56 -0.24 -15.57 -0.36 -15.57 -0.39 0 -11.22 3.24 -18.75 5.59 -21.74 6.80 -26.10 7.74 -31.33 6.68 -3.81 -0.76 -9.38 -2.33 -21.90 -6.23 -11.16 -3.45 -20.99 -6.35 -21.53 -6.35 -0.12 0 -0.27 7.20 -0.30 16.03 l-0.09 16 -5.14 -2.96 c-2.81 -1.60 -8.32 -4.87 -12.19 -7.23 -3.90 -2.36 -7.20 -4.29 -7.32 -4.29 -0.76 0 -3.78 8.89 -5.08 14.97 -0.51 2.33 -1.57 7.65 -2.33 11.79 -2.78 15.21 -4.75 22.47 -7.29 26.95 -1.45 2.57 -7.50 9.80 -14.06 16.84 -6.50 6.96 -16.91 19.39 -16.91 20.17 0 0.82 4.11 3.84 14.82 10.95 3.57 2.39 6.53 4.57 6.59 4.84 0.21 1.06 -8.71 7.44 -18.21 13.09 -2.42 1.45 -4.42 2.72 -4.42 2.87 0 0.30 3.96 5.44 6.32 8.17 0.94 1.06 5.38 6.05 9.86 11.04 14.12 15.67 15.79 17.75 17.48 21.77 1.48 3.54 3.33 11.01 6.11 24.65 2.39 11.70 4.02 17.96 5.96 23.14 0.51 1.33 0.97 2.45 1 2.51 0.12 0.12 4.84 -2.66 9.83 -5.81 11.55 -7.35 13.25 -8.35 13.97 -8.35 l0.76 0 0.18 11.58 c0.12 6.35 0.21 13.49 0.21 15.88 0 3.99 0.03 4.32 0.54 4.17 0.27 -0.09 6.11 -1.97 12.91 -4.11z"/>
  <path d="M152.18 249.04 c-3.05 -1.42 -5.72 -4.90 -8.35 -10.92 -5.56 -12.70 -6.50 -24.07 -4.11 -50.17 0.15 -1.66 0.36 -5.11 0.48 -7.62 0.15 -4.08 0.24 -4.63 0.70 -4.63 0.30 0 0.91 0.39 1.39 0.91 0.82 0.85 0.85 1 1.09 5.35 1.09 19.60 5.26 33.02 10.74 34.54 4.05 1.12 8.26 -5.78 10.16 -16.60 0.60 -3.48 0.51 -12.31 -0.15 -15.15 -1.03 -4.35 -3.11 -7.80 -8.07 -13.28 -5.08 -5.66 -7.26 -8.83 -9.80 -14.30 -6.14 -13.22 -8.10 -34.72 -5.29 -57.97 1.27 -10.68 3.39 -17.93 6.56 -22.59 2.12 -3.11 3.93 -4.32 6.90 -4.57 1.66 -0.12 2.06 -0.03 3.72 0.85 3.63 1.94 7.53 7.05 10.04 13.09 4.20 10.25 4.72 22.02 1.30 30.73 -1.06 2.69 -1.36 2.99 -2.36 2.33 -1.15 -0.73 -2.21 -2.60 -3.05 -5.26 -0.39 -1.27 -1.09 -3.54 -1.54 -5.02 -1.03 -3.39 -2.63 -5.81 -4.81 -7.29 -2.18 -1.51 -3.66 -1.60 -4.45 -0.27 -2.51 4.26 -4.26 14.73 -3.60 21.53 0.76 7.59 2.78 11.67 9.71 19.57 5.47 6.26 8.07 10.34 10.46 16.54 3.81 9.86 5.53 19.17 5.78 31.54 0.36 17.36 -2.21 32.60 -7.68 45.51 -2.81 6.59 -6.32 11.22 -9.83 12.97 -2.27 1.15 -3.75 1.18 -5.93 0.18z"/>
  <path d="M123.54 238.64 c-2.27 -0.57 -5.20 -2.63 -6.05 -4.29 -0.82 -1.51 -0.64 -6.29 1.21 -35.05 1.63 -25.80 1.81 -29.61 1.81 -44.46 0 -11.70 -0.09 -14.79 -0.54 -18.30 -0.70 -5.56 -1.15 -7.53 -1.75 -7.65 -0.39 -0.06 -0.70 0.70 -1.45 3.60 -2.63 9.92 -3.99 19.14 -5.32 36.29 -0.82 10.61 -1.09 12.88 -1.97 17.96 -1.03 5.87 -2.87 10.43 -4.20 10.43 -0.67 0 -1.51 -1.81 -2.42 -5.17 -1.54 -5.66 -2.18 -10.07 -3.05 -21.74 -1.51 -19.93 -3.39 -29.67 -6.56 -33.81 -0.57 -0.79 -0.85 -0.94 -1 -0.64 -1.09 1.97 -1.36 24.34 -0.48 38.07 0.60 9.53 2.66 35.66 3.63 46.36 0.21 2.09 0.39 2.06 -4.54 0.82 -4.48 -1.12 -6.05 -2.06 -7.08 -4.08 l-0.76 -1.51 -0.24 -28.28 c-0.42 -46.24 0.03 -65.23 1.78 -78.33 0.24 -1.91 0.60 -3.63 0.76 -3.81 0.15 -0.21 0.79 -0.45 1.42 -0.57 0.60 -0.09 2.96 -0.60 5.20 -1.09 3.78 -0.85 4.11 -0.88 4.45 -0.39 1.06 1.42 2.96 8.38 5.66 20.53 1.75 7.89 3.30 13.67 3.78 14.15 0.36 0.36 0.42 0.15 1.84 -7.95 3.48 -19.72 5.96 -29.43 9.38 -36.44 2.81 -5.72 6.83 -9.47 10.31 -9.53 l0.79 0 0.21 13.09 c0.12 7.17 0.39 19.75 0.67 27.88 1.18 39.38 1.09 88.88 -0.21 104.03 -0.42 5.29 -1.12 9.62 -1.57 9.89 -0.45 0.27 -2.45 0.27 -3.69 -0.03z"/>
  <path d="M185.29 231.29 c-0.09 -0.39 -0.18 -3.90 -0.21 -7.80 0 -3.90 -0.15 -10.10 -0.33 -13.76 -0.15 -3.66 -0.36 -14.82 -0.48 -24.80 -0.18 -19.20 -0.03 -25.68 1.27 -55.04 0.42 -9.13 0.85 -21.23 0.97 -26.89 l0.18 -10.22 1.57 0.15 c1.75 0.18 4.42 1.42 8.17 3.84 6.14 3.93 13.49 6.59 22.26 8.01 l1.09 0.15 -0.36 1.91 c-2.45 12.34 -4.23 20.69 -4.45 20.90 -0.15 0.18 -1.66 -1.09 -3.66 -3.08 -2.15 -2.12 -3.93 -3.60 -4.78 -3.96 -1.63 -0.73 -4.90 -1.33 -6.47 -1.18 -1.36 0.12 -1.12 -0.45 -2.72 6.62 -0.57 2.60 -1.27 6.23 -1.54 8.01 -0.48 3.48 -0.64 11.19 -0.27 14.12 0.21 1.63 0.27 1.72 1.03 1.72 1.81 0 3.75 -0.97 5.75 -2.93 1.09 -1.06 2.27 -2 2.60 -2.09 0.33 -0.09 2.03 -0.12 3.78 -0.06 l3.18 0.09 -0.06 6.35 c-0.03 5.41 -0.15 7.17 -0.91 11.79 l-0.88 5.44 -1.06 -0.03 c-0.54 0 -2.09 -0.18 -3.36 -0.36 -2.84 -0.42 -3.96 -0.24 -5.08 0.88 -1.69 1.69 -3.33 6.26 -4.42 12.22 -0.82 4.54 -0.70 13.52 0.30 24.04 0.97 9.89 1.36 19.81 0.82 20.81 -0.21 0.36 -1.42 1.15 -2.84 1.81 -2.27 1.06 -7.74 3.54 -8.56 3.87 -0.18 0.09 -0.42 -0.15 -0.51 -0.54z"/>
 </g>
</svg>
